<svg width="128" height="128" viewBox="0 0 128 128" fill="none" xmlns="http://www.w3.org/2000/svg">
<rect width="128" height="128" rx="16" fill="#F9F3CF"/>
<g clip-path="url(#clip0_13_496)">
<path d="M98.5186 99.2559L91.1963 93.5121C86.1101 89.5367 79.1386 88.879 73.3947 91.7144C72.5616 90.2204 71.3898 88.9424 69.9736 87.983C68.5573 87.0235 66.9358 86.4094 65.2393 86.1898V75.7544H67.0078C71.2609 75.7544 74.7101 72.2906 74.7101 68.0521V64.8075C74.7101 64.0036 74.0524 63.3459 73.2486 63.3459H70.0186C68.2063 63.3459 66.5547 63.9598 65.2393 65.0267V57.3244H66.1455C78.057 57.3244 87.7617 47.6344 87.7617 35.7082V33.6036C87.7617 32.7998 87.104 32.1421 86.3001 32.1421H84.1955C74.9001 32.1421 66.9493 38.0467 63.9093 46.3044C60.8547 38.0467 52.9186 32.1421 43.6232 32.1421H41.5186C40.7147 32.1421 40.057 32.7998 40.057 33.6036V35.7082C40.057 47.6344 49.747 57.3244 61.6732 57.3244H62.3163V65.0267C61.0009 63.9744 59.3347 63.3459 57.537 63.3459H54.2924C53.4886 63.3459 52.8309 64.0036 52.8309 64.8075V68.0521C52.8309 72.2906 56.2947 75.7544 60.5478 75.7544H62.3163V86.1898C58.5455 86.6867 55.3009 89.1129 53.7224 92.5621C47.4378 89.0836 39.604 89.9459 34.2109 94.9005L29.4024 99.329C28.8032 99.8698 28.7593 100.791 29.3147 101.39C29.8555 101.974 30.7763 102.018 31.3755 101.477L36.184 97.049C38.4871 94.9269 41.4403 93.6463 44.5635 93.4155C47.6867 93.1846 50.7962 94.0171 53.3863 95.7775C53.474 95.8505 53.5763 95.8944 53.7078 95.9675C54.1024 96.2159 54.5993 96.2744 55.0232 96.099C55.4617 95.9382 55.7978 95.5582 55.9147 95.1052C56.3694 93.3641 57.3871 91.8224 58.8093 90.72C60.2316 89.6177 61.9784 89.0167 63.7778 89.0106C67.1686 89.0106 70.1501 91.0713 71.3778 94.2721C71.5386 94.6667 71.8601 94.9882 72.2694 95.1344C72.6932 95.2659 73.1463 95.2221 73.5117 94.9882C78.4517 91.919 84.8386 92.2552 89.3986 95.8213L96.7209 101.551C97.0259 101.787 97.4119 101.894 97.7951 101.847C98.1782 101.801 98.5276 101.605 98.767 101.302C99.0044 100.997 99.1115 100.611 99.0649 100.228C99.0184 99.8443 98.8219 99.495 98.5186 99.2559Z" fill="black"/>
</g>
<defs>
<clipPath id="clip0_13_496">
<rect width="76" height="76" fill="white" transform="translate(26 29)"/>
</clipPath>
</defs>
</svg>
