<svg width="128" height="128" viewBox="0 0 128 128" fill="none" xmlns="http://www.w3.org/2000/svg">
<rect width="128" height="128" rx="16" fill="#F9F3CF"/>
<path d="M90.5817 86.085L79.815 75.35C83.2888 70.9244 85.1737 65.4594 85.1667 59.8333C85.1667 54.8229 83.6809 49.9249 80.8972 45.7589C78.1136 41.5929 74.1571 38.3458 69.528 36.4284C64.8989 34.511 59.8052 34.0093 54.8911 34.9868C49.9769 35.9643 45.4629 38.377 41.92 41.92C38.377 45.4629 35.9643 49.9769 34.9868 54.8911C34.0093 59.8052 34.511 64.8989 36.4284 69.528C38.3458 74.1571 41.5929 78.1136 45.7589 80.8972C49.9249 83.6809 54.8229 85.1667 59.8333 85.1667C65.4594 85.1737 70.9244 83.2888 75.35 79.815L86.085 90.5817C86.3794 90.8785 86.7296 91.1141 87.1155 91.2748C87.5014 91.4356 87.9153 91.5184 88.3333 91.5184C88.7514 91.5184 89.1653 91.4356 89.5512 91.2748C89.9371 91.1141 90.2873 90.8785 90.5817 90.5817C90.8785 90.2873 91.1141 89.9371 91.2748 89.5512C91.4356 89.1653 91.5184 88.7514 91.5184 88.3333C91.5184 87.9153 91.4356 87.5014 91.2748 87.1155C91.1141 86.7296 90.8785 86.3794 90.5817 86.085ZM40.8333 59.8333C40.8333 56.0755 41.9477 52.402 44.0354 49.2775C46.1232 46.153 49.0906 43.7177 52.5624 42.2796C56.0342 40.8416 59.8544 40.4653 63.5401 41.1984C67.2257 41.9315 70.6112 43.7411 73.2684 46.3983C75.9256 49.0555 77.7351 52.441 78.4683 56.1266C79.2014 59.8123 78.8251 63.6325 77.3871 67.1043C75.949 70.5761 73.5137 73.5435 70.3892 75.6313C67.2646 77.719 63.5912 78.8333 59.8333 78.8333C54.7942 78.8333 49.9615 76.8316 46.3983 73.2684C42.8351 69.7052 40.8333 64.8725 40.8333 59.8333Z" fill="black"/>
</svg>
