<svg width="128" height="128" viewBox="0 0 128 128" fill="none" xmlns="http://www.w3.org/2000/svg">
<rect width="128" height="128" rx="16" fill="#F9F3CF"/>
<path d="M77.3986 76.9603C77.1689 76.9603 76.9443 77.0284 76.7533 77.156C76.5624 77.2836 76.4135 77.465 76.3256 77.6772C76.2377 77.8894 76.2147 78.1229 76.2595 78.3482C76.3043 78.5735 76.4149 78.7804 76.5774 78.9429C76.7398 79.1053 76.9467 79.2159 77.172 79.2607C77.3973 79.3055 77.6308 79.2825 77.843 79.1946C78.0552 79.1067 78.2366 78.9579 78.3642 78.7669C78.4918 78.5759 78.5599 78.3513 78.5599 78.1216C78.5599 77.8136 78.4376 77.5182 78.2198 77.3004C78.002 77.0826 77.7066 76.9603 77.3986 76.9603ZM52.9254 76.9603C52.6956 76.96 52.471 77.0279 52.2798 77.1554C52.0887 77.2829 51.9396 77.4642 51.8516 77.6764C51.7635 77.8886 51.7403 78.1221 51.785 78.3475C51.8297 78.5728 51.9402 78.7799 52.1026 78.9424C52.2649 79.105 52.4719 79.2157 52.6972 79.2606C52.9225 79.3055 53.1561 79.2826 53.3684 79.1947C53.5806 79.1069 53.7621 78.958 53.8898 78.767C54.0174 78.576 54.0856 78.3514 54.0856 78.1216C54.0856 77.8138 53.9634 77.5186 53.7458 77.3008C53.5283 77.0831 53.2332 76.9606 52.9254 76.9603ZM73.8028 55.862C76.1454 54.4829 78.1296 52.5707 79.5943 50.2807L77.0874 48.6895C75.8744 50.5828 74.232 52.1634 72.2935 53.3029L70.6393 54.2802L72.1498 56.8357L73.8028 55.862Z" fill="black"/>
<path fill-rule="evenodd" clip-rule="evenodd" d="M49.5518 101.925H37.0047C36.8092 101.925 36.6157 101.886 36.4352 101.811C36.2547 101.736 36.0908 101.627 35.9529 101.488C35.815 101.35 35.7058 101.185 35.6316 101.005C35.5573 100.824 35.5195 100.63 35.5203 100.435V64.9284C35.5201 64.7334 35.5584 64.5403 35.6329 64.3602C35.7075 64.18 35.8168 64.0163 35.9547 63.8784C36.0926 63.7406 36.2563 63.6312 36.4364 63.5567C36.6166 63.4822 36.8097 63.4439 37.0047 63.444H52.2723V61.3778C48.877 59.2123 46.0815 56.2269 44.1436 52.6968C42.2057 49.1667 41.1877 45.2055 41.1835 41.1784C41.1835 40.7847 41.3399 40.4072 41.6182 40.1288C41.8966 39.8504 42.2742 39.694 42.6678 39.694H57.8773V32.4503C57.8773 32.0566 58.0337 31.679 58.3121 31.4007C58.5905 31.1223 58.968 30.9659 59.3617 30.9659H86.1719V26.5508H89.1407V32.4503C89.1407 32.6452 89.1023 32.8382 89.0277 33.0183C88.9531 33.1984 88.8437 33.3621 88.7059 33.4999C88.568 33.6377 88.4044 33.7471 88.2243 33.8217C88.0442 33.8963 87.8512 33.9347 87.6563 33.9347H72.4468V39.6952H87.6563C88.05 39.6952 88.4275 39.8516 88.7059 40.13C88.9843 40.4084 89.1407 40.7859 89.1407 41.1796C89.1266 45.2043 88.1043 49.1612 86.167 52.689C84.2297 56.2167 81.4392 59.2028 78.0506 61.3742V63.45H93.3195C93.7131 63.45 94.0907 63.6064 94.3691 63.8847C94.6474 64.1631 94.8038 64.5407 94.8038 64.9343V100.441C94.8038 100.834 94.6474 101.212 94.3691 101.49C94.0907 101.769 93.7131 101.925 93.3195 101.925H80.7688C80.5224 101.925 80.2799 101.863 80.0631 101.746C79.8463 101.629 79.6619 101.46 79.5266 101.254L75.4321 95.003H54.8884L50.7939 101.254C50.6588 101.46 50.4745 101.629 50.2576 101.746C50.0408 101.864 49.7982 101.925 49.5518 101.925ZM81.5751 98.9562H91.8351V95.003H78.9851L81.5751 98.9562ZM69.478 33.9347H60.8461V39.6952H69.478V33.9347ZM86.1244 42.664H44.2057C44.4478 46.0585 45.5119 49.3431 47.3061 52.2348C49.1003 55.1265 51.5709 57.5385 54.5048 59.2628C54.7289 59.3936 54.9149 59.5809 55.044 59.8059C55.1732 60.0309 55.2412 60.2859 55.2411 60.5453V63.4452H75.0878V60.5453C75.0877 60.287 75.155 60.0332 75.2831 59.8089C75.4112 59.5846 75.5956 59.3976 75.8181 59.2664C78.7459 57.5335 81.2119 55.119 83.0063 52.2285C84.8007 49.3379 85.8704 46.0567 86.1244 42.664ZM91.8351 66.414H38.489V92.0343H46.1627V73.3537C46.1627 72.96 46.319 72.5825 46.5974 72.3041C46.8758 72.0257 47.2533 71.8693 47.647 71.8693H82.6783C83.072 71.8693 83.4495 72.0257 83.7279 72.3041C84.0063 72.5825 84.1627 72.96 84.1627 73.3537V92.0343H91.8351V66.414ZM51.339 95.003H38.489V98.9562H48.749L51.339 95.003Z" fill="black"/>
</svg>
