<svg width="128" height="128" viewBox="0 0 128 128" fill="none" xmlns="http://www.w3.org/2000/svg">
<rect width="128" height="128" rx="16" fill="#F9F3CF"/>
<path d="M69.0533 73.2249C69.1378 73.245 69.2233 73.2545 69.3067 73.2545C69.7946 73.2545 70.2382 72.9219 70.3575 72.4256C71.3958 68.0969 71.8634 63.6689 72.6681 59.378C73.6735 54.0058 77.1131 50.3181 81.8685 49.5144C83.4114 49.2481 85.146 49.6006 86.9745 49.6676C87.5596 49.6961 88.0728 49.224 88.0949 48.6274C88.1172 48.0297 87.6514 47.5281 87.0548 47.507C85.232 47.4392 83.3988 47.0612 81.5074 47.3814C75.8205 48.3435 71.7209 52.6796 70.5412 58.981C69.7452 63.2347 69.2596 67.7314 68.2539 71.9208C68.1144 72.5016 68.4724 73.0855 69.0533 73.2249Z" fill="black"/>
<path d="M29.1736 91.4851C45.3771 102.034 68.8621 101.388 81.745 86.3801C91.4564 75.0676 97.0397 66.2358 98.3409 60.1308C99.2386 55.9139 98.5867 51.9817 96.5041 48.6662C96.516 48.6294 96.5354 48.596 96.5434 48.5575C97.1718 45.5415 96.3037 43.0587 93.8906 40.9666C93.4629 40.596 93.4587 40.5696 93.7491 40.0384C95.0533 37.6518 96.913 35.7413 99.4338 34.1995C100.81 33.3579 100.901 32.3049 100.832 31.7516C100.548 29.4838 97.7905 28.6999 95.9656 29.9648C92.9896 32.022 90.6653 34.5323 89.058 37.4258C88.6741 38.1158 88.4681 38.2149 87.6862 38.107C84.5466 37.6877 82.1747 38.6709 80.2748 41.1495C80.2634 41.1643 80.2585 41.1821 80.2479 41.1973C79.3081 41.33 78.37 41.5367 77.4435 41.8306C69.0393 44.5006 66.3985 50.8327 65.4341 58.3789C64.79 63.4194 63.9884 69.6924 58.5846 78.3806C52.8119 87.6639 41.7165 89.0571 30.879 87.6084C30.3544 87.5383 27.9175 87.2539 27.4753 88.2125L27.2187 88.7669C26.7556 89.7741 28.8209 91.2546 29.1736 91.4851ZM90.9486 38.4754C92.3933 35.8754 94.4948 33.6102 97.1951 31.7431C97.6413 31.4363 98.6741 31.4251 98.6862 32.0156C98.6766 32.0483 98.5869 32.1824 98.306 32.3546C95.4525 34.0991 93.3414 36.2736 91.8503 39.0013C90.0248 42.3474 93.7299 42.2695 94.4683 45.6777C91.4533 42.8465 87.9229 41.2476 83.7748 40.8326C86.8856 39.0196 89.0224 41.945 90.9486 38.4754ZM60.4223 79.5232C66.0742 70.4337 66.9444 63.6243 67.5802 58.6524C68.3828 52.3643 70.2507 46.3853 78.0985 43.8919C87.8713 40.7884 98.6012 48.5267 96.2246 59.6809C95.3829 63.6317 91.9032 71.2257 80.104 84.9713C68.0748 98.9837 45.923 99.757 30.4514 89.7362C42.5502 90.8117 53.8105 90.1533 60.4223 79.5232Z" fill="black"/>
<path d="M43.0999 30.2835C42.4551 29.892 41.6376 29.9611 41.0733 30.4563C40.4976 30.9399 40.3133 31.746 40.6127 32.4369C42.6278 37.1696 42.0981 39.4266 41.603 40.3478C41.0733 41.3151 40.2212 41.5684 39.8757 41.626C38.943 41.7987 38.2406 39.9563 38.229 39.9448C38.0103 39.2999 37.423 38.8508 36.7436 38.7933C36.0527 38.7472 35.4194 39.0811 35.0854 39.6799C32.0339 45.2417 31.2278 50.4581 32.7018 55.2023C34.8551 62.1575 41.1539 65.4048 41.4188 65.5429C41.6605 65.6696 41.937 65.7272 42.1903 65.7272C42.6163 65.7272 43.0194 65.5775 43.3418 65.2896C43.8715 64.8175 44.0672 64.069 43.8254 63.4011C43.2957 61.9617 42.363 57.7932 44.2975 55.7551C45.4836 54.5115 46.3127 53.3714 46.8769 52.3927C51.506 59.6702 49.0303 61.9502 48.9842 62.0078C48.9727 62.0078 48.9727 62.0193 48.9612 62.0193C48.1782 62.5606 47.9939 63.6315 48.5236 64.4145C49.0648 65.1975 50.1242 65.4048 50.9188 64.8751C50.9188 64.8636 50.9303 64.8636 50.9418 64.8521C56.5497 60.9254 59.3133 56.3769 59.1521 51.3102C58.8066 40.0138 43.7448 30.6751 43.0999 30.2835Z" fill="black"/>
</svg>
