<svg width="128" height="128" viewBox="0 0 128 128" fill="none" xmlns="http://www.w3.org/2000/svg">
<rect width="128" height="128" rx="16" fill="#F9F3CF"/>
<path d="M54.88 57.1598H73.12C75.628 57.1598 77.68 55.1078 77.68 52.5998V48.0398V40.4398C77.68 35.4238 73.576 31.3198 68.56 31.3198H59.44C54.424 31.3198 50.32 35.4238 50.32 40.4398V48.0398V52.5998C50.32 55.1078 52.372 57.1598 54.88 57.1598ZM74.64 46.5198H53.36V41.9598H74.64V46.5198ZM74.64 52.5998C74.64 53.4358 73.956 54.1198 73.12 54.1198H54.88C54.044 54.1198 53.36 53.4358 53.36 52.5998V49.5598H74.64V52.5998ZM59.44 34.3598H68.56C71.372 34.3598 73.804 36.3358 74.412 38.9198H53.588C54.196 36.3358 56.628 34.3598 59.44 34.3598ZM95.768 62.6318C95.54 62.0998 95.008 61.7198 94.4 61.7198H76.16C75.704 61.7198 75.248 61.9478 75.02 62.2518L67.876 70.8398H60.124L52.98 62.2518C52.752 61.9478 52.296 61.7198 51.84 61.7198H33.6C32.992 61.7198 32.46 62.0238 32.232 62.6318C32.004 63.1638 32.08 63.7718 32.46 64.2278L39.68 72.8918V95.1598C39.68 95.9958 40.364 96.6798 41.2 96.6798H68.56H86.8C87.636 96.6798 88.32 95.9958 88.32 95.1598V72.8918L95.54 64.2278C95.92 63.7718 95.996 63.1638 95.768 62.6318ZM51.156 64.7598L56.248 70.8398H41.884L36.792 64.7598H51.156ZM42.72 73.8798H59.44H67.04V93.6398H42.72V73.8798ZM85.28 93.6398H70.08V73.8798H85.28V93.6398ZM86.116 70.8398H71.828L76.92 64.7598H91.208L86.116 70.8398Z" fill="black"/>
</svg>
